<svg width="150" height="46" viewBox="0 0 150 46" fill="none" xmlns="http://www.w3.org/2000/svg">
<rect x="1" y="1" width="148" height="44" rx="8" fill="white" stroke="#CFCFCF"/>
<path fill-rule="evenodd" clip-rule="evenodd" d="M38.4929 21.997C38.4666 18.8466 41.0563 17.3154 41.17 17.245C39.7002 15.0978 37.4255 14.7986 36.6294 14.7722C34.7222 14.5698 32.8674 15.925 31.8963 15.925C30.9077 15.925 29.4029 14.7986 27.7931 14.825C25.7197 14.8602 23.7687 16.0658 22.7101 17.949C20.5142 21.777 22.1502 27.409 24.2586 30.5066C25.3172 32.0202 26.5421 33.7186 28.1606 33.657C29.7354 33.5954 30.3303 32.645 32.2288 32.645C34.1185 32.645 34.6697 33.657 36.3144 33.6218C38.0117 33.5954 39.0703 32.0994 40.0939 30.5682C41.31 28.8346 41.7999 27.1186 41.8174 27.0306C41.7737 27.013 38.5279 25.7634 38.4929 21.997Z" fill="black"/>
<path fill-rule="evenodd" clip-rule="evenodd" d="M35.3871 12.7392C36.2357 11.6744 36.8131 10.2224 36.6557 8.74402C35.4308 8.79682 33.891 9.59762 33.0074 10.6448C32.2288 11.5688 31.5289 13.0736 31.7039 14.4904C33.0862 14.596 34.5035 13.7864 35.3871 12.7392Z" fill="black"/>
<path fill-rule="evenodd" clip-rule="evenodd" d="M57.5739 28.0163L56.4803 24.6283C56.3666 24.2763 56.1479 23.4667 55.8329 22.1819H55.7892C55.658 22.7363 55.4567 23.5547 55.1768 24.6283L54.1007 28.0163H57.5739ZM61.3446 33.4368H59.1399L57.9326 29.6176H53.7331L52.5871 33.4368H50.4436L54.5993 20.4392H57.1714L61.3446 33.4368Z" fill="black"/>
<path fill-rule="evenodd" clip-rule="evenodd" d="M69.9185 28.7107C69.9185 27.7955 69.7172 27.0475 69.3061 26.4579C68.8599 25.8419 68.2562 25.5339 67.5038 25.5339C66.9964 25.5339 66.5327 25.7099 66.1128 26.0443C65.7016 26.3875 65.4216 26.8275 65.2991 27.3819C65.2379 27.6371 65.2029 27.8483 65.2029 28.0155V29.5819C65.2029 30.2595 65.4129 30.8403 65.8241 31.3067C66.2352 31.7731 66.7777 32.0107 67.4426 32.0107C68.2212 32.0107 68.8249 31.7027 69.2623 31.1043C69.6997 30.4971 69.9185 29.7051 69.9185 28.7107ZM72.027 28.6406C72.027 30.2334 71.5983 31.4918 70.7322 32.4158C69.9623 33.243 68.9999 33.6478 67.8626 33.6478C66.629 33.6478 65.7454 33.2078 65.203 32.319V37.2382H63.1295V27.1446C63.1295 26.1414 63.1033 25.1206 63.0508 24.0646H64.8705L64.9843 25.5518H65.0193C65.7104 24.4342 66.7603 23.871 68.1601 23.871C69.2624 23.871 70.1723 24.311 70.9072 25.1822C71.6596 26.0622 72.027 27.2062 72.027 28.6406Z" fill="black"/>
<path fill-rule="evenodd" clip-rule="evenodd" d="M80.627 28.7107C80.627 27.7955 80.4258 27.0475 80.0146 26.4579C79.5684 25.8419 78.9647 25.5339 78.2123 25.5339C77.7049 25.5339 77.2412 25.7099 76.8213 26.0443C76.4101 26.3875 76.1389 26.8275 76.0076 27.3819C75.9464 27.6371 75.9114 27.8483 75.9114 28.0155V29.5819C75.9114 30.2595 76.1214 30.8403 76.5326 31.3067C76.9437 31.7731 77.4862 32.0107 78.1511 32.0107C78.9297 32.0107 79.5421 31.7027 79.9708 31.1043C80.417 30.4971 80.627 29.7051 80.627 28.7107ZM82.7355 28.6406C82.7355 30.2334 82.3068 31.4918 81.4407 32.4158C80.6708 33.243 79.7084 33.6478 78.5711 33.6478C77.3375 33.6478 76.4539 33.2078 75.9115 32.319V37.2382H73.838V27.1446C73.838 26.1414 73.8118 25.1206 73.7593 24.0646H75.579L75.6928 25.5518H75.7277C76.4189 24.4342 77.4688 23.871 78.8686 23.871C79.9709 23.871 80.8808 24.311 81.6157 25.1822C82.3681 26.0622 82.7355 27.2062 82.7355 28.6406Z" fill="black"/>
<path fill-rule="evenodd" clip-rule="evenodd" d="M94.7212 29.7934C94.7212 30.9022 94.3363 31.7997 93.5751 32.4949C92.7352 33.2517 91.5629 33.6301 90.0581 33.6301C88.667 33.6301 87.5559 33.3573 86.7161 32.8205L87.1972 31.087C88.1071 31.6237 89.1045 31.8966 90.1893 31.8966C90.968 31.8966 91.5804 31.7205 92.0091 31.3686C92.4465 31.0166 92.6652 30.5413 92.6652 29.9517C92.6652 29.4237 92.4815 28.9837 92.1316 28.6229C91.7729 28.2621 91.1779 27.9277 90.3468 27.6197C88.0634 26.7661 86.9348 25.5254 86.9348 23.8974C86.9348 22.8326 87.3372 21.9614 88.1334 21.275C88.9295 20.5974 89.9881 20.2542 91.3092 20.2542C92.4815 20.2542 93.4614 20.4566 94.24 20.8702L93.7151 22.5598C92.9802 22.1638 92.1578 21.9614 91.2304 21.9614C90.5043 21.9614 89.9269 22.1462 89.5157 22.4982C89.1745 22.8238 88.9995 23.211 88.9995 23.6774C88.9995 24.1878 89.2007 24.6189 89.5944 24.9446C89.9356 25.2526 90.5655 25.5869 91.4754 25.9478C92.5865 26.3966 93.4001 26.9246 93.9251 27.5317C94.4587 28.1389 94.7212 28.8958 94.7212 29.7934Z" fill="black"/>
<path fill-rule="evenodd" clip-rule="evenodd" d="M101.58 25.6311H99.2967V30.1807C99.2967 31.3335 99.6991 31.9143 100.504 31.9143C100.871 31.9143 101.178 31.8791 101.423 31.8175L101.484 33.4015C101.073 33.5511 100.539 33.6303 99.8741 33.6303C99.0517 33.6303 98.4218 33.3751 97.9581 32.8735C97.4944 32.3719 97.2669 31.5271 97.2669 30.3479V25.6223H95.9109V24.0647H97.2669V22.3487L99.2967 21.7327V24.0647H101.58V25.6311Z" fill="black"/>
<path fill-rule="evenodd" clip-rule="evenodd" d="M109.708 28.7196C109.708 27.8572 109.524 27.1268 109.157 26.5108C108.719 25.7628 108.098 25.3932 107.293 25.3932C106.462 25.3932 105.824 25.7628 105.395 26.5108C105.019 27.1268 104.844 27.8748 104.844 28.7636C104.844 29.626 105.027 30.3652 105.395 30.9724C105.841 31.7204 106.471 32.09 107.276 32.09C108.063 32.09 108.684 31.7116 109.139 30.9548C109.516 30.3212 109.708 29.582 109.708 28.7196ZM111.851 28.6756C111.851 30.1188 111.44 31.298 110.626 32.222C109.769 33.1724 108.632 33.6476 107.214 33.6476C105.85 33.6476 104.756 33.19 103.942 32.2836C103.129 31.3772 102.726 30.2244 102.726 28.834C102.726 27.382 103.146 26.194 103.977 25.27C104.817 24.346 105.946 23.8796 107.363 23.8796C108.728 23.8796 109.83 24.3372 110.661 25.2524C111.458 26.1324 111.851 27.2764 111.851 28.6756Z" fill="black"/>
<path fill-rule="evenodd" clip-rule="evenodd" d="M118.588 25.8948C118.387 25.8596 118.168 25.842 117.932 25.842C117.206 25.842 116.637 26.1148 116.243 26.6692C115.902 27.1532 115.727 27.778 115.727 28.5172V33.4364H113.654V27.0124C113.654 25.93 113.636 24.9444 113.592 24.0644H115.395L115.473 25.8596H115.535C115.753 25.2436 116.094 24.742 116.567 24.3724C117.031 24.038 117.529 23.8708 118.063 23.8708C118.255 23.8708 118.43 23.8884 118.579 23.906L118.588 25.8948Z" fill="black"/>
<path fill-rule="evenodd" clip-rule="evenodd" d="M125.867 27.7695C125.884 27.1535 125.744 26.6167 125.464 26.1679C125.106 25.5871 124.554 25.2967 123.82 25.2967C123.146 25.2967 122.595 25.5783 122.175 26.1415C121.834 26.5903 121.624 27.1359 121.562 27.7607L125.867 27.7695ZM127.844 28.3064C127.844 28.676 127.818 28.9928 127.765 29.248H121.554C121.58 30.172 121.877 30.8848 122.455 31.3688C122.98 31.8 123.653 32.02 124.484 32.02C125.403 32.02 126.243 31.8704 126.995 31.58L127.319 33.0232C126.436 33.4104 125.394 33.604 124.196 33.604C122.752 33.604 121.615 33.1728 120.792 32.3192C119.97 31.4656 119.559 30.3128 119.559 28.8784C119.559 27.4704 119.944 26.2912 120.714 25.3496C121.519 24.3464 122.604 23.8448 123.968 23.8448C125.307 23.8448 126.33 24.3464 127.013 25.3496C127.564 26.1592 127.844 27.136 127.844 28.3064Z" fill="black"/>
<mask id="mask0_130_511" style="mask-type:alpha" maskUnits="userSpaceOnUse" x="1" y="1" width="148" height="44">
<path fill-rule="evenodd" clip-rule="evenodd" d="M1 45H148.635V1H1V45Z" fill="white"/>
</mask>
<g mask="url(#mask0_130_511)">
</g>
<path d="M60.84 14.146H59.391C58.851 14.713 58.383 14.929 57.744 14.929C56.52 14.929 55.512 13.903 55.512 12.661C55.512 11.41 56.448 10.42 57.717 10.42C58.491 10.42 59.013 10.672 59.463 11.257H60.84C60.255 9.97 59.058 9.232 57.69 9.232C55.809 9.232 54.27 10.771 54.27 12.652C54.27 14.569 55.827 16.117 57.771 16.117C59.13 16.117 60.318 15.361 60.84 14.146ZM68.3935 13.543C68.3935 12.058 67.2325 10.897 65.7295 10.897C64.2805 10.897 63.0925 12.076 63.0925 13.507C63.0925 14.947 64.2805 16.117 65.7385 16.117C67.1875 16.117 68.3935 14.947 68.3935 13.543ZM67.1875 13.507C67.1875 14.344 66.5395 15.019 65.7475 15.019C64.9375 15.019 64.2985 14.344 64.2985 13.489C64.2985 12.67 64.9555 11.995 65.7385 11.995C66.5395 11.995 67.1875 12.679 67.1875 13.507ZM78.3443 16V13.12C78.3443 11.626 77.6423 10.897 76.3283 10.897C75.6263 10.897 75.1313 11.131 74.7263 11.671C74.3843 11.131 73.9433 10.897 73.2593 10.897C72.6743 10.897 72.3143 11.059 71.9633 11.482V11.014H70.8653V16H72.0623V13.543C72.0623 12.364 72.3413 11.995 73.0343 11.995C73.6643 11.995 74.0063 12.283 74.0063 13.264V16H75.2033V13.543C75.2033 12.355 75.5453 11.995 76.2113 11.995C76.7693 11.995 77.1473 12.265 77.1473 13.264V16H78.3443ZM82.3262 16V11.014H81.1292V16H82.3262ZM82.3352 10.294V9.097H81.1382V10.294H82.3352ZM89.5193 16V13.327C89.5193 12.436 89.4293 12.004 89.1593 11.617C88.8353 11.149 88.2953 10.897 87.6023 10.897C87.0353 10.897 86.6393 11.068 86.1983 11.491V11.014H85.0913V16H86.2883V13.651C86.2883 12.985 86.3333 12.697 86.4863 12.454C86.6753 12.157 86.9903 11.995 87.3683 11.995C87.9623 11.995 88.3223 12.229 88.3223 13.561V16H89.5193ZM97.3008 15.055V11.014H96.1578V11.644C95.7888 11.14 95.2488 10.897 94.5288 10.897C93.1158 10.897 92.0718 11.995 92.0718 13.471C92.0718 15.01 93.0978 16.117 94.5198 16.117C95.2218 16.117 95.6898 15.892 96.1578 15.343C96.1128 16.414 95.6538 16.936 94.7628 16.936C94.2048 16.936 93.8628 16.792 93.5118 16.405H92.1528C92.5578 17.404 93.4938 17.989 94.7178 17.989C96.2658 17.989 97.3008 17.197 97.3008 15.055ZM96.1038 13.525C96.1038 14.425 95.5368 15.019 94.6818 15.019C93.8268 15.019 93.2778 14.434 93.2778 13.525C93.2778 12.607 93.8268 11.995 94.6638 11.995C95.5188 11.995 96.1038 12.616 96.1038 13.525ZM107.646 14.416C107.646 13.678 107.304 13.282 106.26 12.958C105.441 12.697 105.414 12.679 105.414 12.418C105.414 12.175 105.612 11.995 105.873 11.995C106.125 11.995 106.287 12.13 106.341 12.391H107.511C107.466 11.455 106.719 10.897 105.873 10.897C104.946 10.897 104.217 11.563 104.217 12.418C104.217 13.147 104.613 13.561 105.603 13.894C106.404 14.164 106.449 14.245 106.449 14.533C106.449 14.812 106.215 15.019 105.909 15.019C105.558 15.019 105.36 14.839 105.243 14.416H104.037C104.163 15.577 104.874 16.117 105.864 16.117C106.863 16.117 107.646 15.37 107.646 14.416ZM115.2 13.543C115.2 12.058 114.039 10.897 112.536 10.897C111.087 10.897 109.899 12.076 109.899 13.507C109.899 14.947 111.087 16.117 112.545 16.117C113.994 16.117 115.2 14.947 115.2 13.543ZM113.994 13.507C113.994 14.344 113.346 15.019 112.554 15.019C111.744 15.019 111.105 14.344 111.105 13.489C111.105 12.67 111.762 11.995 112.545 11.995C113.346 11.995 113.994 12.679 113.994 13.507ZM122.757 13.543C122.757 12.058 121.596 10.897 120.093 10.897C118.644 10.897 117.456 12.076 117.456 13.507C117.456 14.947 118.644 16.117 120.102 16.117C121.551 16.117 122.757 14.947 122.757 13.543ZM121.551 13.507C121.551 14.344 120.903 15.019 120.111 15.019C119.301 15.019 118.662 14.344 118.662 13.489C118.662 12.67 119.319 11.995 120.102 11.995C120.903 11.995 121.551 12.679 121.551 13.507ZM129.657 16V13.327C129.657 12.436 129.567 12.004 129.297 11.617C128.973 11.149 128.433 10.897 127.74 10.897C127.173 10.897 126.777 11.068 126.336 11.491V11.014H125.229V16H126.426V13.651C126.426 12.985 126.471 12.697 126.624 12.454C126.813 12.157 127.128 11.995 127.506 11.995C128.1 11.995 128.46 12.229 128.46 13.561V16H129.657Z" fill="black"/>
</svg>
