<svg width="148" height="44" viewBox="0 0 148 44" fill="none" xmlns="http://www.w3.org/2000/svg">
<mask id="mask0_130_537" style="mask-type:alpha" maskUnits="userSpaceOnUse" x="0" y="0" width="148" height="44">
<path fill-rule="evenodd" clip-rule="evenodd" d="M0 0H147.635V44H0V0Z" fill="white"/>
</mask>
<g mask="url(#mask0_130_537)">
<path fill-rule="evenodd" clip-rule="evenodd" d="M142.167 44H5.46798C2.40591 44 0 41.58 0 38.5V5.5C0 2.42 2.40591 0 5.46798 0H142.167C145.23 0 147.635 2.42 147.635 5.5V38.5C147.635 41.58 145.23 44 142.167 44Z" fill="#262626"/>
</g>
<mask id="mask1_130_537" style="mask-type:alpha" maskUnits="userSpaceOnUse" x="0" y="0" width="148" height="44">
<path fill-rule="evenodd" clip-rule="evenodd" d="M0 44H147.635V0H0V44Z" fill="white"/>
</mask>
<g mask="url(#mask1_130_537)">
<path fill-rule="evenodd" clip-rule="evenodd" d="M116.905 33H118.983V19.25H116.905V33ZM135.278 24.2L132.981 30.14H132.872L130.466 24.2H128.279L131.888 32.56L129.81 37.18H131.888L137.465 24.2H135.278ZM123.795 31.4596C123.139 31.4596 122.155 31.1296 122.155 30.2496C122.155 29.1496 123.358 28.8196 124.342 28.8196C125.217 28.8196 125.654 29.0396 126.201 29.2596C125.982 30.5796 124.889 31.4596 123.795 31.4596ZM124.014 23.8696C122.483 23.8696 120.952 24.5296 120.405 25.9596L122.264 26.7296C122.701 25.9596 123.358 25.7396 124.123 25.7396C125.217 25.7396 126.201 26.3996 126.31 27.4996V27.6096C125.982 27.3896 125.107 27.0596 124.232 27.0596C122.264 27.0596 120.296 28.1596 120.296 30.1396C120.296 32.0096 121.936 33.2196 123.686 33.2196C125.107 33.2196 125.764 32.5596 126.31 31.8996H126.42V32.9996H128.388V27.7196C128.169 25.2996 126.31 23.8696 124.014 23.8696ZM111.438 25.8496H108.485V21.1196H111.438C112.969 21.1196 113.844 22.4396 113.844 23.4296C113.734 24.6396 112.859 25.8496 111.438 25.8496ZM111.328 19.25H106.407V33H108.485V27.83H111.328C113.625 27.83 115.812 26.18 115.812 23.54C115.812 20.9 113.625 19.25 111.328 19.25ZM84.6443 31.4596C83.2226 31.4596 82.0197 30.2496 82.0197 28.5996C82.0197 26.9496 83.2226 25.7396 84.6443 25.7396C86.066 25.7396 87.1596 26.9496 87.1596 28.5996C87.1596 30.2496 86.066 31.4596 84.6443 31.4596ZM87.0505 24.9696C86.5037 24.4196 85.6288 23.8696 84.5352 23.8696C82.2387 23.8696 80.0515 25.9596 80.0515 28.5996C80.0515 31.2396 82.1293 33.2196 84.5352 33.2196C85.6288 33.2196 86.5037 32.6696 86.9411 32.1196H87.0505V32.7796C87.0505 34.5396 86.0662 35.5296 84.5352 35.5296C83.3322 35.5296 82.4574 34.6496 82.2387 33.8796L80.4889 34.6496C81.0357 35.8596 82.348 37.3996 84.6446 37.3996C87.0505 37.3996 89.0189 35.9696 89.0189 32.5596V24.1996H87.0505V24.9696ZM90.3311 33H92.409V19.25H90.3311V33ZM95.4711 28.4896C95.4711 26.7296 96.8928 25.7396 97.877 25.7396C98.6426 25.7396 99.4081 26.1796 99.6268 26.7296L95.4711 28.4896ZM101.814 26.9501C101.376 25.8501 100.283 23.9801 97.8768 23.9801C95.4709 23.9801 93.5024 25.8501 93.5024 28.7101C93.5024 31.3501 95.4709 33.4401 98.0955 33.4401C100.173 33.4401 101.486 32.1201 101.923 31.3501L100.392 30.2501C99.8453 31.0201 99.1891 31.5701 98.0955 31.5701C97.0019 31.5701 96.3458 31.1301 95.799 30.1401L102.032 27.5001L101.814 26.9501ZM52.1646 25.4098V27.3898H56.8671C56.7577 28.4898 56.3203 29.3698 55.7735 29.9198C55.1173 30.5798 54.0237 31.3498 52.1646 31.3498C49.2119 31.3498 47.0247 29.0398 47.0247 26.0698C47.0247 23.0998 49.3213 20.7898 52.1646 20.7898C53.6957 20.7898 54.8986 21.4498 55.7735 22.2198L57.1952 20.7898C55.9922 19.6898 54.4612 18.8098 52.274 18.8098C48.337 18.8098 44.9469 22.1098 44.9469 26.0698C44.9469 30.0298 48.337 33.3298 52.274 33.3298C54.4612 33.3298 55.9922 32.6698 57.3045 31.2398C58.6168 29.9198 59.0543 28.0498 59.0543 26.6198C59.0543 26.1798 59.0543 25.7398 58.9449 25.4098H52.1646ZM64.3035 31.4596C62.8818 31.4596 61.6788 30.2496 61.6788 28.5996C61.6788 26.9496 62.8818 25.7396 64.3035 25.7396C65.7251 25.7396 66.9281 26.8396 66.9281 28.5996C66.9281 30.2496 65.7251 31.4596 64.3035 31.4596ZM64.3034 23.9801C61.6788 23.9801 59.601 25.9601 59.601 28.7101C59.601 31.3501 61.6788 33.4401 64.3034 33.4401C66.9281 33.4401 69.0059 31.4601 69.0059 28.7101C69.0059 25.8501 66.9281 23.9801 64.3034 23.9801ZM74.4741 31.4596C73.0524 31.4596 71.8495 30.2496 71.8495 28.5996C71.8495 26.9496 73.0524 25.7396 74.4741 25.7396C75.8958 25.7396 77.0987 26.8396 77.0987 28.5996C77.0987 30.2496 75.8958 31.4596 74.4741 31.4596ZM74.4741 23.9801C71.8494 23.9801 69.7716 25.9601 69.7716 28.7101C69.7716 31.3501 71.8494 33.4401 74.4741 33.4401C77.0987 33.4401 79.1765 31.4601 79.1765 28.7101C79.1765 25.8501 77.0987 23.9801 74.4741 23.9801Z" fill="white"/>
</g>
<mask id="mask2_130_537" style="mask-type:alpha" maskUnits="userSpaceOnUse" x="10" y="8" width="16" height="28">
<path fill-rule="evenodd" clip-rule="evenodd" d="M10.9359 9.78978V34.0998C10.9359 34.76 11.1546 35.3098 11.4827 35.6398L11.5921 35.75L25.1527 22.11V21.8898L11.3734 8.25C11.0453 8.57978 10.9359 9.12978 10.9359 9.78978Z" fill="white"/>
</mask>
<g mask="url(#mask2_130_537)">
<path fill-rule="evenodd" clip-rule="evenodd" d="M10.9359 9.78978V34.0998C10.9359 34.76 11.1546 35.3098 11.4827 35.6398L11.5921 35.75L25.1527 22.11V21.8898L11.3734 8.25C11.0453 8.57978 10.9359 9.12978 10.9359 9.78978Z" fill="#32BBFF"/>
</g>
<mask id="mask3_130_537" style="mask-type:alpha" maskUnits="userSpaceOnUse" x="25" y="17" width="12" height="10">
<path fill-rule="evenodd" clip-rule="evenodd" d="M25.0431 21.8891V22.2191L29.5268 26.7291L34.9948 23.7591C36.5258 22.8791 36.5258 21.4491 34.9948 20.5689L29.6362 17.4891L29.5268 17.3789L25.0431 21.8891Z" fill="white"/>
</mask>
<g mask="url(#mask3_130_537)">
<path fill-rule="evenodd" clip-rule="evenodd" d="M25.0431 21.8891V22.2191L29.5268 26.7291L34.9948 23.7591C36.5258 22.8791 36.5258 21.4491 34.9948 20.5689L29.6362 17.4891L29.5268 17.3789L25.0431 21.8891Z" fill="#FFD500"/>
</g>
<mask id="mask4_130_537" style="mask-type:alpha" maskUnits="userSpaceOnUse" x="11" y="22" width="19" height="15">
<path fill-rule="evenodd" clip-rule="evenodd" d="M11.3732 35.7502C11.92 36.3 12.6855 36.3 13.6697 35.86L29.6362 26.62L25.0431 22L11.3732 35.7502Z" fill="white"/>
</mask>
<g mask="url(#mask4_130_537)">
<path fill-rule="evenodd" clip-rule="evenodd" d="M11.3732 35.7502C11.92 36.3 12.6855 36.3 13.6697 35.86L29.6362 26.62L25.0431 22L11.3732 35.7502Z" fill="url(#paint0_linear_130_537)"/>
</g>
<mask id="mask5_130_537" style="mask-type:alpha" maskUnits="userSpaceOnUse" x="11" y="7" width="19" height="15">
<path fill-rule="evenodd" clip-rule="evenodd" d="M11.3732 8.35952L25.0431 21.9995L29.6362 17.3795L13.6697 8.24974C13.2262 8.0018 12.8272 7.88806 12.4727 7.88806C12.04 7.88784 11.6737 8.05724 11.3732 8.35952Z" fill="white"/>
</mask>
<g mask="url(#mask5_130_537)">
<path fill-rule="evenodd" clip-rule="evenodd" d="M11.3732 8.35952L25.0431 21.9995L29.6362 17.3795L13.6697 8.24974C13.2262 8.0018 12.8272 7.88806 12.4727 7.88806C12.04 7.88784 11.6737 8.05724 11.3732 8.35952Z" fill="#29CC5E"/>
</g>
<path fill-rule="evenodd" clip-rule="evenodd" d="M29.5269 26.5098L13.6697 35.5298C12.7948 36.0798 12.0293 35.9698 11.4825 35.5298L11.3732 35.6398L11.4825 35.7498C12.0293 36.1898 12.7948 36.2998 13.6697 35.7498L29.5269 26.5098Z" fill="black"/>
<path fill-rule="evenodd" clip-rule="evenodd" d="M34.995 23.4299L29.527 26.5099L29.6364 26.6199L34.995 23.5399C35.7605 23.0999 36.0886 22.5499 36.0886 21.9999C36.0886 22.5499 35.6512 22.9899 34.995 23.4299ZM11.3734 35.5301C11.0453 35.2001 10.9359 34.6501 10.9359 33.9901V34.1001C10.9359 34.7601 11.1546 35.3101 11.4827 35.6401V35.5301H11.3734Z" fill="black"/>
<path fill-rule="evenodd" clip-rule="evenodd" d="M13.6699 8.35978L34.995 20.5698C35.6512 21.0098 36.0886 21.4498 36.0886 21.9998C36.0886 21.4498 35.7605 20.8998 34.995 20.4598L13.6699 8.24978C12.1389 7.36978 10.9359 8.02978 10.9359 9.78978V9.89978C10.9359 8.24978 12.1389 7.47978 13.6699 8.35978Z" fill="white"/>
<path d="M55.84 12.146H54.391C53.851 12.713 53.383 12.929 52.744 12.929C51.52 12.929 50.512 11.903 50.512 10.661C50.512 9.41 51.448 8.42 52.717 8.42C53.491 8.42 54.013 8.672 54.463 9.257H55.84C55.255 7.97 54.058 7.232 52.69 7.232C50.809 7.232 49.27 8.771 49.27 10.652C49.27 12.569 50.827 14.117 52.771 14.117C54.13 14.117 55.318 13.361 55.84 12.146ZM63.3935 11.543C63.3935 10.058 62.2325 8.897 60.7295 8.897C59.2805 8.897 58.0925 10.076 58.0925 11.507C58.0925 12.947 59.2805 14.117 60.7385 14.117C62.1875 14.117 63.3935 12.947 63.3935 11.543ZM62.1875 11.507C62.1875 12.344 61.5395 13.019 60.7475 13.019C59.9375 13.019 59.2985 12.344 59.2985 11.489C59.2985 10.67 59.9555 9.995 60.7385 9.995C61.5395 9.995 62.1875 10.679 62.1875 11.507ZM73.3443 14V11.12C73.3443 9.626 72.6423 8.897 71.3283 8.897C70.6263 8.897 70.1313 9.131 69.7263 9.671C69.3843 9.131 68.9433 8.897 68.2593 8.897C67.6743 8.897 67.3143 9.059 66.9633 9.482V9.014H65.8653V14H67.0623V11.543C67.0623 10.364 67.3413 9.995 68.0343 9.995C68.6643 9.995 69.0063 10.283 69.0063 11.264V14H70.2033V11.543C70.2033 10.355 70.5453 9.995 71.2113 9.995C71.7693 9.995 72.1473 10.265 72.1473 11.264V14H73.3443ZM77.3262 14V9.014H76.1292V14H77.3262ZM77.3352 8.294V7.097H76.1382V8.294H77.3352ZM84.5193 14V11.327C84.5193 10.436 84.4293 10.004 84.1593 9.617C83.8353 9.149 83.2953 8.897 82.6023 8.897C82.0353 8.897 81.6393 9.068 81.1983 9.491V9.014H80.0913V14H81.2883V11.651C81.2883 10.985 81.3333 10.697 81.4863 10.454C81.6753 10.157 81.9903 9.995 82.3683 9.995C82.9623 9.995 83.3223 10.229 83.3223 11.561V14H84.5193ZM92.3008 13.055V9.014H91.1578V9.644C90.7888 9.14 90.2488 8.897 89.5288 8.897C88.1158 8.897 87.0718 9.995 87.0718 11.471C87.0718 13.01 88.0978 14.117 89.5198 14.117C90.2218 14.117 90.6898 13.892 91.1578 13.343C91.1128 14.414 90.6538 14.936 89.7628 14.936C89.2048 14.936 88.8628 14.792 88.5118 14.405H87.1528C87.5578 15.404 88.4938 15.989 89.7178 15.989C91.2658 15.989 92.3008 15.197 92.3008 13.055ZM91.1038 11.525C91.1038 12.425 90.5368 13.019 89.6818 13.019C88.8268 13.019 88.2778 12.434 88.2778 11.525C88.2778 10.607 88.8268 9.995 89.6638 9.995C90.5188 9.995 91.1038 10.616 91.1038 11.525ZM102.646 12.416C102.646 11.678 102.304 11.282 101.26 10.958C100.441 10.697 100.414 10.679 100.414 10.418C100.414 10.175 100.612 9.995 100.873 9.995C101.125 9.995 101.287 10.13 101.341 10.391H102.511C102.466 9.455 101.719 8.897 100.873 8.897C99.9456 8.897 99.2166 9.563 99.2166 10.418C99.2166 11.147 99.6126 11.561 100.603 11.894C101.404 12.164 101.449 12.245 101.449 12.533C101.449 12.812 101.215 13.019 100.909 13.019C100.558 13.019 100.36 12.839 100.243 12.416H99.0366C99.1626 13.577 99.8736 14.117 100.864 14.117C101.863 14.117 102.646 13.37 102.646 12.416ZM110.2 11.543C110.2 10.058 109.039 8.897 107.536 8.897C106.087 8.897 104.899 10.076 104.899 11.507C104.899 12.947 106.087 14.117 107.545 14.117C108.994 14.117 110.2 12.947 110.2 11.543ZM108.994 11.507C108.994 12.344 108.346 13.019 107.554 13.019C106.744 13.019 106.105 12.344 106.105 11.489C106.105 10.67 106.762 9.995 107.545 9.995C108.346 9.995 108.994 10.679 108.994 11.507ZM117.757 11.543C117.757 10.058 116.596 8.897 115.093 8.897C113.644 8.897 112.456 10.076 112.456 11.507C112.456 12.947 113.644 14.117 115.102 14.117C116.551 14.117 117.757 12.947 117.757 11.543ZM116.551 11.507C116.551 12.344 115.903 13.019 115.111 13.019C114.301 13.019 113.662 12.344 113.662 11.489C113.662 10.67 114.319 9.995 115.102 9.995C115.903 9.995 116.551 10.679 116.551 11.507ZM124.657 14V11.327C124.657 10.436 124.567 10.004 124.297 9.617C123.973 9.149 123.433 8.897 122.74 8.897C122.173 8.897 121.777 9.068 121.336 9.491V9.014H120.229V14H121.426V11.651C121.426 10.985 121.471 10.697 121.624 10.454C121.813 10.157 122.128 9.995 122.506 9.995C123.1 9.995 123.46 10.229 123.46 11.561V14H124.657Z" fill="white"/>
<defs>
<linearGradient id="paint0_linear_130_537" x1="11.0139" y1="14.8528" x2="-6.59653" y2="44.2467" gradientUnits="userSpaceOnUse">
<stop stop-color="#FF3A44"/>
<stop offset="1" stop-color="#C31162"/>
</linearGradient>
</defs>
</svg>
