<svg width="15" height="15" viewBox="0 0 15 15" fill="none" xmlns="http://www.w3.org/2000/svg">
<path d="M10 13.75C10.6875 13.75 11.25 13.1875 11.25 12.5L11.2437 10.5125C11.2437 10.1812 11.1125 9.86875 10.8812 9.63125L8.75 7.5L10.8812 5.35625C11.1125 5.125 11.2437 4.80625 11.2437 4.475L11.25 2.5C11.25 1.8125 10.6875 1.25 10 1.25H5C4.3125 1.25 3.75 1.8125 3.75 2.5V4.475C3.75 4.80625 3.88125 5.125 4.1125 5.3625L6.25 7.5L4.11875 9.625C3.88125 9.8625 3.75 10.1812 3.75 10.5125V12.5C3.75 13.1875 4.3125 13.75 5 13.75H10ZM5 4.43125V3.125C5 2.78125 5.28125 2.5 5.625 2.5H9.375C9.71875 2.5 10 2.78125 10 3.125V4.43125C10 4.6 9.93125 4.75625 9.81875 4.875L7.5 7.1875L5.18125 4.86875C5.06875 4.75625 5 4.59375 5 4.43125Z" fill="#4E5559"/>
</svg>
