<svg width="21" height="20" viewBox="0 0 21 20" fill="none" xmlns="http://www.w3.org/2000/svg">
<path d="M18.9 0H2.1C0.945 0 0 0.9 0 2V18C0 19.1 0.945 20 2.1 20H18.9C20.055 20 21 19.1 21 18V2C21 0.9 20.055 0 18.9 0ZM6.3 17H3.15V8H6.3V17ZM4.725 6.3C3.675 6.3 2.835 5.5 2.835 4.5C2.835 3.5 3.675 2.7 4.725 2.7C5.775 2.7 6.615 3.5 6.615 4.5C6.615 5.5 5.775 6.3 4.725 6.3ZM17.85 17H14.7V11.7C14.7 10.9 13.965 10.2 13.125 10.2C12.285 10.2 11.55 10.9 11.55 11.7V17H8.4V8H11.55V9.2C12.075 8.4 13.23 7.8 14.175 7.8C16.17 7.8 17.85 9.4 17.85 11.3V17Z" fill="white"/>
</svg>
