<svg width="15" height="15" viewBox="0 0 15 15" fill="none" xmlns="http://www.w3.org/2000/svg">
<path d="M7.5 2.5C8.875 2.5 10 3.625 10 5C10 6.3125 8.6875 8.4375 7.5 9.9375C6.3125 8.375 5 6.3125 5 5C5 3.625 6.125 2.5 7.5 2.5ZM7.5 1.25C5.4375 1.25 3.75 2.9375 3.75 5C3.75 7.8125 7.5 11.875 7.5 11.875C7.5 11.875 11.25 7.75 11.25 5C11.25 2.9375 9.5625 1.25 7.5 1.25ZM7.5 3.75C6.8125 3.75 6.25 4.3125 6.25 5C6.25 5.6875 6.8125 6.25 7.5 6.25C8.1875 6.25 8.75 5.6875 8.75 5C8.75 4.3125 8.1875 3.75 7.5 3.75ZM12.5 11.875C12.5 13.25 10.25 14.375 7.5 14.375C4.75 14.375 2.5 13.25 2.5 11.875C2.5 11.0625 3.25 10.375 4.4375 9.875L4.8125 10.4375C4.1875 10.75 3.75 11.125 3.75 11.5625C3.75 12.4375 5.4375 13.125 7.5 13.125C9.5625 13.125 11.25 12.4375 11.25 11.5625C11.25 11.125 10.8125 10.75 10.125 10.4375L10.5 9.875C11.75 10.375 12.5 11.0625 12.5 11.875Z" fill="#4E5559"/>
</svg>
