<svg width="12" height="15" viewBox="0 0 12 15" fill="none" xmlns="http://www.w3.org/2000/svg">
<path d="M6.00008 11.3333C6.3537 11.3333 6.69284 11.1928 6.94289 10.9428C7.19294 10.6927 7.33341 10.3536 7.33341 9.99999C7.33341 9.64637 7.19294 9.30723 6.94289 9.05718C6.69284 8.80713 6.3537 8.66666 6.00008 8.66666C5.64646 8.66666 5.30732 8.80713 5.05727 9.05718C4.80722 9.30723 4.66675 9.64637 4.66675 9.99999C4.66675 10.3536 4.80722 10.6927 5.05727 10.9428C5.30732 11.1928 5.64646 11.3333 6.00008 11.3333ZM10.0001 5.33332C10.3537 5.33332 10.6928 5.4738 10.9429 5.72385C11.1929 5.9739 11.3334 6.31303 11.3334 6.66666V13.3333C11.3334 13.6869 11.1929 14.0261 10.9429 14.2761C10.6928 14.5262 10.3537 14.6667 10.0001 14.6667H2.00008C1.64646 14.6667 1.30732 14.5262 1.05727 14.2761C0.807224 14.0261 0.666748 13.6869 0.666748 13.3333V6.66666C0.666748 6.31303 0.807224 5.9739 1.05727 5.72385C1.30732 5.4738 1.64646 5.33332 2.00008 5.33332H2.66675V3.99999C2.66675 3.11593 3.01794 2.26809 3.64306 1.64297C4.26818 1.01785 5.11603 0.666656 6.00008 0.666656C6.43782 0.666656 6.87127 0.752876 7.27569 0.920391C7.68011 1.08791 8.04757 1.33344 8.3571 1.64297C8.66663 1.9525 8.91216 2.31996 9.07968 2.72438C9.2472 3.1288 9.33341 3.56225 9.33341 3.99999V5.33332H10.0001ZM6.00008 1.99999C5.46965 1.99999 4.96094 2.2107 4.58587 2.58578C4.21079 2.96085 4.00008 3.46956 4.00008 3.99999V5.33332H8.00008V3.99999C8.00008 3.46956 7.78937 2.96085 7.41429 2.58578C7.03922 2.2107 6.53051 1.99999 6.00008 1.99999Z" fill="#4E5559"/>
</svg>
