<svg width="31" height="31" viewBox="0 0 31 31" fill="none" xmlns="http://www.w3.org/2000/svg">
<circle cx="15.5" cy="15.5" r="15.5" fill="#C4C4C4"/>
<path d="M14.6666 18.6667V18H9.99992V20.6667C9.99992 21.4067 10.5933 22 11.3333 22H20.6666C21.4066 22 21.9999 21.4067 21.9999 20.6667V18H17.3333V18.6667H14.6666ZM21.3333 12.6667H18.6666V11.3333L17.3333 10H14.6666L13.3333 11.3333V12.6667H10.6666C9.93325 12.6667 9.33325 13.2667 9.33325 14V16C9.33325 16.74 9.92659 17.3333 10.6666 17.3333H14.6666V16H17.3333V17.3333H21.3333C22.0666 17.3333 22.6666 16.7333 22.6666 16V14C22.6666 13.2667 22.0666 12.6667 21.3333 12.6667ZM17.3333 12.6667H14.6666V11.3333H17.3333V12.6667Z" fill="#4E5559"/>
</svg>
