<svg width="18" height="14" viewBox="0 0 18 14" fill="none" xmlns="http://www.w3.org/2000/svg">
<path fill-rule="evenodd" clip-rule="evenodd" d="M10.1375 5.90257C10.1375 8.00593 8.36857 9.80515 6.06875 9.80515C3.76893 9.80515 2 8.00593 2 5.90257C2 3.79922 3.76893 2 6.06875 2C8.36857 2 10.1375 3.79922 10.1375 5.90257ZM10.747 9.66265C9.6339 10.9713 7.95144 11.8051 6.06875 11.8051C2.71707 11.8051 0 9.16248 0 5.90257C0 2.64267 2.71707 0 6.06875 0C9.42043 0 12.1375 2.64267 12.1375 5.90257C12.1375 6.6419 11.9978 7.34947 11.7425 8.00168C11.8343 8.03025 11.9232 8.07236 12.0063 8.12852L16.5734 11.2136C17.0278 11.5205 17.1379 12.1311 16.8192 12.5773C16.5006 13.0236 15.8739 13.1365 15.4195 12.8296L10.8524 9.74453C10.8149 9.71922 10.7798 9.69184 10.747 9.66265Z" fill="#8B8B8B"/>
</svg>
