<svg width="15" height="16" viewBox="0 0 15 16" fill="none" xmlns="http://www.w3.org/2000/svg">
<path d="M13.0417 10.875H11.4583V9.29165H13.0417V10.875ZM13.0417 14.0416H11.4583V12.4583H13.0417V14.0416ZM8.29167 4.54165H6.70833V2.95831H8.29167V4.54165ZM8.29167 7.70831H6.70833V6.12498H8.29167V7.70831ZM8.29167 10.875H6.70833V9.29165H8.29167V10.875ZM8.29167 14.0416H6.70833V12.4583H8.29167V14.0416ZM3.54167 7.70831H1.95833V6.12498H3.54167V7.70831ZM3.54167 10.875H1.95833V9.29165H3.54167V10.875ZM3.54167 14.0416H1.95833V12.4583H3.54167V14.0416ZM9.875 7.70831V2.95831L7.5 0.583313L5.125 2.95831V4.54165H0.375V15.625H14.625V7.70831H9.875Z" fill="#4E5559"/>
</svg>
