<svg width="19" height="15" viewBox="0 0 19 15" fill="none" xmlns="http://www.w3.org/2000/svg">
<path fill-rule="evenodd" clip-rule="evenodd" d="M11.0499 6.52494C11.0499 9.02399 9.02399 11.0499 6.52494 11.0499C4.02588 11.0499 2 9.02399 2 6.52494C2 4.02588 4.02588 2 6.52494 2C9.02399 2 11.0499 4.02588 11.0499 6.52494ZM11.5556 10.6805C10.3588 12.1277 8.54958 13.0499 6.52494 13.0499C2.92131 13.0499 0 10.1286 0 6.52494C0 2.92131 2.92131 0 6.52494 0C10.1286 0 13.0499 2.92131 13.0499 6.52494C13.0499 7.34299 12.8993 8.12589 12.6244 8.84743C12.7263 8.8796 12.8251 8.92744 12.9174 8.99156L17.8106 12.3899C18.3039 12.7325 18.426 13.4102 18.0834 13.9035C17.7408 14.3968 17.0632 14.5189 16.5699 14.1763L11.6767 10.778C11.6335 10.748 11.5931 10.7154 11.5556 10.6805Z" fill="white"/>
</svg>
